# xmcd CD database file
#
# Track frame offsets:
#	150
#	28532
#	65947
#	113699
#	144073
#	180003
#	214539
#	241338
#
# Disc length: 3530 seconds
#
# Revision: 0
# Processed by: cddbd v1.5.1PL0 Copyright (c) Steve Scherf et al.
# Submitted via: CDex 1.51
#
DISCID=600dc808
DTITLE=Michael Bisio Trio - Composance
DYEAR=2004
DGENRE=Jazz
TTITLE0=CRT
TTITLE1=Refused
TTITLE2=Charles Too!
TTITLE3=Less Than
TTITLE4=Yo Mike, Kleimo Here
TTITLE5=Composance
TTITLE6=Come Sunday
TTITLE7=Pretty Boy, Pig Face and the Family God
EXTD=YEAR: 2004
EXTT0=
EXTT1=
EXTT2=
EXTT3=
EXTT4=
EXTT5=
EXTT6=
EXTT7=
PLAYORDER=
